<svg xmlns="http://www.w3.org/2000/svg" xmlns:xlink="http://www.w3.org/1999/xlink" width="776" height="742" contentScriptType="application/ecmascript" contentStyleType="text/css" preserveAspectRatio="none" version="1.1" viewBox="0 0 776 742" zoomAndPan="magnify" style="width:776px;height:742px"><defs><filter id="f9plscsw16ptk" width="300%" height="300%" x="-1" y="-1"><feGaussianBlur result="blurOut" stdDeviation="2"/><feColorMatrix in="blurOut" result="blurOut2" type="matrix" values="0 0 0 0 0 0 0 0 0 0 0 0 0 0 0 0 0 0 .4 0"/><feOffset dx="4" dy="4" in="blurOut2" result="blurOut3"/><feBlend in="SourceGraphic" in2="blurOut3" mode="normal"/></filter></defs><g><polygon fill="#FFF" stroke="#000" stroke-width="1.5" points="22 24 130 24 137 46.297 685 46.297 685 576 22 576 22 24" filter="url(#f9plscsw16ptk)"/><line x1="22" x2="137" y1="46.297" y2="46.297" stroke="#000" stroke-width="1.5"/><text x="26" y="38.995" fill="#000" font-family="sans-serif" font-size="14" font-weight="bold" lengthAdjust="spacingAndGlyphs" textLength="102">Visual Studio</text><polygon fill="#FFF" stroke="#000" stroke-width="1.5" points="54 178 146 178 153 200.297 653 200.297 653 544 54 544 54 178" filter="url(#f9plscsw16ptk)"/><line x1="54" x2="153" y1="200.297" y2="200.297" stroke="#000" stroke-width="1.5"/><text x="58" y="192.995" fill="#000" font-family="sans-serif" font-size="14" font-weight="bold" lengthAdjust="spacingAndGlyphs" textLength="86">VCRuntime</text><polygon fill="#FFF" stroke="#000" stroke-width="1.5" points="120 600 235 600 242 622.297 662 622.297 662 730 120 730 120 600" filter="url(#f9plscsw16ptk)"/><line x1="120" x2="242" y1="622.297" y2="622.297" stroke="#000" stroke-width="1.5"/><text x="124" y="614.995" fill="#000" font-family="sans-serif" font-size="14" font-weight="bold" lengthAdjust="spacingAndGlyphs" textLength="109">Windows SDK</text><rect width="544" height="95.188" x="81" y="59" fill="#FEFECE" stroke="#A80036" stroke-width="1.5" filter="url(#f9plscsw16ptk)"/><rect width="15" height="10" x="605" y="64" fill="#FEFECE" stroke="#A80036" stroke-width="1.5"/><rect width="4" height="2" x="603" y="66" fill="#FEFECE" stroke="#A80036" stroke-width="1.5"/><rect width="4" height="2" x="603" y="70" fill="#FEFECE" stroke="#A80036" stroke-width="1.5"/><text x="96" y="91.995" fill="#000" font-family="sans-serif" font-size="14" font-weight="bold" lengthAdjust="spacingAndGlyphs" textLength="29">STL</text><text x="96" y="108.292" fill="#000" font-family="sans-serif" font-size="14" lengthAdjust="spacingAndGlyphs" textLength="492">This repo; provides C++ Standard Library headers, separately compiled</text><text x="96" y="124.589" fill="#000" font-family="sans-serif" font-size="14" lengthAdjust="spacingAndGlyphs" textLength="504">implementations of most of the iostreams functionality, and a few runtime</text><text x="96" y="140.886" fill="#000" font-family="sans-serif" font-size="14" lengthAdjust="spacingAndGlyphs" textLength="307">support components like std::exception_ptr.</text><rect width="531" height="127.781" x="97.5" y="221" fill="#FEFECE" stroke="#A80036" stroke-width="1.5" filter="url(#f9plscsw16ptk)"/><rect width="15" height="10" x="608.5" y="226" fill="#FEFECE" stroke="#A80036" stroke-width="1.5"/><rect width="4" height="2" x="606.5" y="228" fill="#FEFECE" stroke="#A80036" stroke-width="1.5"/><rect width="4" height="2" x="606.5" y="232" fill="#FEFECE" stroke="#A80036" stroke-width="1.5"/><text x="112.5" y="253.995" fill="#000" font-family="sans-serif" font-size="14" font-weight="bold" lengthAdjust="spacingAndGlyphs" textLength="80">VCStartup</text><text x="112.5" y="270.292" fill="#000" font-family="sans-serif" font-size="14" lengthAdjust="spacingAndGlyphs" textLength="491">Provides compiler support mechanisms that live in each binary; such as</text><text x="112.5" y="286.589" fill="#000" font-family="sans-serif" font-size="14" lengthAdjust="spacingAndGlyphs" textLength="483">machinery to call constructors and destructors for global variables, the</text><text x="112.5" y="302.886" fill="#000" font-family="sans-serif" font-size="14" lengthAdjust="spacingAndGlyphs" textLength="218">entry point, and the /GS cookie.</text><text x="112.5" y="335.479" fill="#000" font-family="sans-serif" font-size="14" lengthAdjust="spacingAndGlyphs" textLength="361">Merged into static and import libraries of VCRuntime.</text><rect width="511" height="111.484" x="112.5" y="409" fill="#FEFECE" stroke="#A80036" stroke-width="1.5" filter="url(#f9plscsw16ptk)"/><rect width="15" height="10" x="603.5" y="414" fill="#FEFECE" stroke="#A80036" stroke-width="1.5"/><rect width="4" height="2" x="601.5" y="416" fill="#FEFECE" stroke="#A80036" stroke-width="1.5"/><rect width="4" height="2" x="601.5" y="420" fill="#FEFECE" stroke="#A80036" stroke-width="1.5"/><text x="127.5" y="441.995" fill="#000" font-family="sans-serif" font-size="14" font-weight="bold" lengthAdjust="spacingAndGlyphs" textLength="86">VCRuntime</text><text x="127.5" y="458.292" fill="#000" font-family="sans-serif" font-size="14" lengthAdjust="spacingAndGlyphs" textLength="471">Provides compiler support mechanisms that can be shared between</text><text x="127.5" y="474.589" fill="#000" font-family="sans-serif" font-size="14" lengthAdjust="spacingAndGlyphs" textLength="417">binaries; code that the compiler calls on your behalf, such as</text><text x="127.5" y="490.886" fill="#000" font-family="sans-serif" font-size="14" lengthAdjust="spacingAndGlyphs" textLength="421">the C++ exception handling runtime, string.h intrinsics, math</text><text x="127.5" y="507.183" fill="#000" font-family="sans-serif" font-size="14" lengthAdjust="spacingAndGlyphs" textLength="415">intrinsics, and declarations for CPU-vendor-specific intrinsics.</text><rect width="509" height="78.891" x="136.5" y="635" fill="#FEFECE" stroke="#A80036" stroke-width="1.5" filter="url(#f9plscsw16ptk)"/><rect width="15" height="10" x="625.5" y="640" fill="#FEFECE" stroke="#A80036" stroke-width="1.5"/><rect width="4" height="2" x="623.5" y="642" fill="#FEFECE" stroke="#A80036" stroke-width="1.5"/><rect width="4" height="2" x="623.5" y="646" fill="#FEFECE" stroke="#A80036" stroke-width="1.5"/><text x="151.5" y="667.995" fill="#000" font-family="sans-serif" font-size="14" font-weight="bold" lengthAdjust="spacingAndGlyphs" textLength="109">Universal CRT</text><text x="151.5" y="684.292" fill="#000" font-family="sans-serif" font-size="14" lengthAdjust="spacingAndGlyphs" textLength="461">Windows component that provides C library support, such as printf,</text><text x="151.5" y="700.589" fill="#000" font-family="sans-serif" font-size="14" lengthAdjust="spacingAndGlyphs" textLength="469">C locales, and some POSIX-like shims for the Windows API, like _stat.</text><path id="VCStartup-&gt;VCRuntime" fill="none" stroke="#A80036" stroke-width="1" d="M364.777,349.08 C365.275,366.779 365.816,385.969 366.309,403.485"/><polygon fill="#A80036" stroke="#A80036" stroke-width="1" points="366.461 408.864 370.207 399.755 366.321 403.866 362.211 399.98 366.461 408.864"/><path id="STL-&gt;UCRT" fill="none" stroke="#A80036" stroke-width="1" d="M625.262,147.453 C633.794,151.813 640.552,156.645 645,162 C764.839,306.276 753.366,430.919 645,584 C630.501,604.482 610.917,620.309 589.017,632.534"/><polygon fill="#A80036" stroke="#A80036" stroke-width="1" points="584.607 634.931 594.425 634.148 589 632.544 590.605 627.119 584.607 634.931"/><path id="STL-&gt;VCRuntimePackage" fill="none" stroke="#A80036" stroke-width="1" d="M91.0811,154.051 C87.0591,156.57 83.6648,159.217 81,162 C78.6649,164.4384 76.5452,167.0385 74.6232,169.7712 C73.6622,171.1376 72.7507,172.5371 71.8864,173.9662 C71.4542,174.6807 71.0339,175.4026 70.625,176.1314 C70.4206,176.4958 70.2191,176.862 70.0204,177.2298 C69.9211,177.4137 69.8225,177.598 69.7245,177.7828"/><polygon fill="#A80036" stroke="#A80036" stroke-width="1" points="69.725 177.783 77.474 171.704 72.066 173.365 70.405 167.957 69.725 177.783"/><path id="VCRuntime-&gt;UCRT" fill="none" stroke="#A80036" stroke-width="1" d="M374.043,520.15 C377.833,554.425 382.653,598.011 386.184,629.948"/><polygon fill="#A80036" stroke="#A80036" stroke-width="1" points="386.74 634.971 389.728 625.586 386.191 630.001 381.776 626.464 386.74 634.971"/></g></svg>